<?xml version="1.0" encoding="utf-8"?>
<?xml-stylesheet type="text/xsl" href="rss1.xsl"?>
<rss version="2.0" xmlns:atom="http://www.w3.org/2005/Atom" xmlns:content="http://purl.org/rss/1.0/modules/content/" xmlns:dc="http://purl.org/dc/elements/1.1/" xmlns:media="http://search.yahoo.com/mrss/">
<channel>
 <title>Getty</title>
 <link>http://www.gettyimg.com/</link>
 <atom:link href="http://www.gettyimg.com/" rel="self" type="application/rss+xml" />

 
                <item>
                <title><![CDATA[【Cinema Center】SERIES - Stephen.Kings.Storm.of.the.Century.S01.1080p.HULU.WEB-DL.AAC2.0.H.264-Samuel]]></title>
                <link><![CDATA[https://sharemania.us/threads/stephen-kings-storm-of-the-century-s01-1080p-hulu-web-dl-aac2-0-h-264-samuel.228045/]]></link>
                <description><![CDATA[<article>
<blockquote class="messageText SelectQuoteContainer ugc baseHtml">
<div style="text-align: center"><b><span style="font-size: 26px">Stephen King's Storm of the Century</span></b><br>
<b><span style="font-size: 22px">Season 1</span></b><br>
<img src="https://i.imgur.com/soGkqFU.jpg" class="bbCodeImage LbImage" alt="[​IMG]" data-url="https://i.imgur.com/soGkqFU.jpg" style=""><br>
<b><a href="https://i.imgur.com/dmbr67e.jpg" target="_blank" class="externalLink" rel="nofollow">Alternate Artwork</a></b> | <b><a href="https://i.imgur.com/OrdtXlv.jpg" target="_blank" class="externalLink" rel="nofollow">Thumbnail 1</a></b> | <b><a href="https://i.imgur.com/ZM2lAVK.jpg" target="_blank" class="externalLink" rel="nofollow">Thumbnail 2</a></b> | <b><a href="https://i.imgur.com/Xj7DgVT.jpg" target="_blank" class="externalLink" rel="nofollow">Thumbnail 3</a></b><br>
<br>
<b>Starring:</b> Tim Daly, Colm Feore, Dyllan Christopher<br>
<br>
<div class="bbCodeBlock bbCodeQuote">
<aside>
<blockquote class="quoteContainer"><div class="quote"><b><span style="font-size: 15px"><span style="font-family: 'Arial'">Description</span></span></b><br>
The inhabitants of a sleepy town on a small Maine island find themselves cut off from civilization during the worst snowstorm of the century, only to find terror knocking on their door when an evil stranger comes to town. As streets disappear under the snow, and the little light they have is erased by the fury of the storm, murder follows murder, and the townspeople are faced with making an unthinkable choice for the sake of their children.</div><div class="quoteExpand">Click to expand...</div></blockquote>
</aside>
</div>
<div class="bbCodeBlock bbCodeQuote">
<aside>
<blockquote class="quoteContainer"><div class="quote"><b><span style="font-size: 15px"><span style="font-family: 'Arial'">More Information</span></span><br>
Starring:</b> Tim Daly, Colm Feore, Dyllan Christopher, Debrah Farentino, Casey Siemaszko<br>
<br>
Horror • TV Series • 1999 • 1h 47m<br>
HD</div><div class="quoteExpand">Click to expand...</div></blockquote>
</aside>
</div>
<div class="bbCodeBlock bbCodeQuote">
<aside>
<blockquote class="quoteContainer"><div class="quote"><b><span style="font-size: 15px">Source</span></b><br>
<img src="https://i.imgur.com/4uiLEFv.png" class="bbCodeImage LbImage" alt="[​IMG]" data-url="https://i.imgur.com/4uiLEFv.png" style=""></div><div class="quoteExpand">Click to expand...</div></blockquote>
</aside>
</div>
<div class="bbCodeBlock bbCodeQuote">
<aside>
<blockquote class="quoteContainer"><div class="quote"><b><span style="font-size: 15px">Release Name</span></b><br>
Stephen.Kings.Storm.of.the.Century.S01.1080p.HULU.WEB-DL.AAC2.0.H.264-Samuel</div><div class="quoteExpand">Click to expand...</div></blockquote>
</aside>
</div>
<div class="ToggleTriggerAnchor bbCodeSpoilerContainer">
<button type="button" class="button bbCodeSpoilerButton ToggleTrigger Tooltip JsOnly" data-target="> .SpoilerTarget"><span>Spoiler: <span class="SpoilerTitle">Media Information</span></span></button>
<div class="SpoilerTarget bbCodeSpoilerText"><b><span style="text-decoration: underline">Episode 1: Storm of the Century, Part 1</span></b><br>
General<br>
Complete name : Stephen.Kings.Storm.of.the.Century.S01E01.Storm.of.the.Century.Part.1.1080p.HULU.WEB-DL.AAC2.0.H.264-Samuel.mkv<br>
Format : Matroska<br>
Format version : Version 4<br>
File size : 2.91 GiB<br>
Duration : 1 h 25 min<br>
Overall bit rate : 4 859 kb/s<br>
Frame rate : 23.976 FPS<br>
Encoded date : 2023-09-09 04:46:23 UTC<br>
Writing application : mkvmerge v72.0.0 ('Minuano (Six-eight)') 64-bit<br>
Writing library : libebml v1.4.4 + libmatroska v1.7.1<br>
<br>
Video<br>
ID : 1<br>
Format : AVC<br>
Format/Info : Advanced Video Codec<br>
Format profile : High@L4<br>
Format settings : CABAC / 4 Ref Frames<br>
Format settings, CABAC : Yes<br>
Format settings, Reference frames : 4 frames<br>
Codec ID : V_MPEG4/ISO/AVC<br>
Duration : 1 h 25 min<br>
Bit rate : 4 793 kb/s<br>
Width : 1 920 pixels<br>
Height : 1 080 pixels<br>
Display aspect ratio : 16:9<br>
Frame rate mode : Constant<br>
Frame rate : 23.976 (24000/1001) FPS<br>
Color space : YUV<br>
Chroma subsampling : 4:2:0<br>
Bit depth : 8 bits<br>
Scan type : Progressive<br>
Bits/(Pixel*Frame) : 0.096<br>
Stream size : 2.88 GiB (99%)<br>
Default : Yes<br>
Forced : No<br>
<br>
Audio<br>
ID : 2<br>
Format : AAC LC SBR<br>
Format/Info : Advanced Audio Codec Low Complexity with Spectral Band Replication<br>
Commercial name : HE-AAC<br>
Format settings : Explicit<br>
Codec ID : A_AAC-2<br>
Duration : 1 h 25 min<br>
Bit rate : 64.0 kb/s<br>
Channel(s) : 2 channels<br>
Channel layout : L R<br>
Sampling rate : 48.0 kHz<br>
Frame rate : 23.438 FPS (2048 SPF)<br>
Compression mode : Lossy<br>
Stream size : 39.3 MiB (1%)<br>
Language : English<br>
Default : Yes<br>
Forced : No<br>
<br>
Text<br>
ID : 3<br>
Format : UTF-8<br>
Codec ID : S_TEXT/UTF8<br>
Codec ID/Info : UTF-8 Plain Text<br>
Duration : 1 h 24 min<br>
Bit rate : 53 b/s<br>
Frame rate : 0.205 FPS<br>
Count of elements : 1038<br>
Stream size : 32.8 KiB (0%)<br>
Title : SDH<br>
Language : English<br>
Default : No<br>
Forced : No<br>
<br>
Menu<br>
01:24:27.001 : en:Credits<br>
<br>
<b><span style="text-decoration: underline">Episode 2: Storm of the Century, Part 2</span></b><br>
General<br>
Complete name : Stephen.Kings.Storm.of.the.Century.S01E02.Storm.of.the.Century.Part.2.1080p.HULU.WEB-DL.AAC2.0.H.264-Samuel.mkv<br>
Format : Matroska<br>
Format version : Version 4<br>
File size : 2.61 GiB<br>
Duration : 1 h 30 min<br>
Overall bit rate : 4 152 kb/s<br>
Frame rate : 23.976 FPS<br>
Encoded date : 2023-09-09 04:49:35 UTC<br>
Writing application : mkvmerge v72.0.0 ('Minuano (Six-eight)') 64-bit<br>
Writing library : libebml v1.4.4 + libmatroska v1.7.1<br>
<br>
Video<br>
ID : 1<br>
Format : AVC<br>
Format/Info : Advanced Video Codec<br>
Format profile : High@L4<br>
Format settings : CABAC / 4 Ref Frames<br>
Format settings, CABAC : Yes<br>
Format settings, Reference frames : 4 frames<br>
Codec ID : V_MPEG4/ISO/AVC<br>
Duration : 1 h 30 min<br>
Bit rate : 4 086 kb/s<br>
Width : 1 920 pixels<br>
Height : 1 080 pixels<br>
Display aspect ratio : 16:9<br>
Frame rate mode : Constant<br>
Frame rate : 23.976 (24000/1001) FPS<br>
Color space : YUV<br>
Chroma subsampling : 4:2:0<br>
Bit depth : 8 bits<br>
Scan type : Progressive<br>
Bits/(Pixel*Frame) : 0.082<br>
Stream size : 2.57 GiB (98%)<br>
Default : Yes<br>
Forced : No<br>
<br>
Audio<br>
ID : 2<br>
Format : AAC LC SBR<br>
Format/Info : Advanced Audio Codec Low Complexity with Spectral Band Replication<br>
Commercial name : HE-AAC<br>
Format settings : Explicit<br>
Codec ID : A_AAC-2<br>
Duration : 1 h 30 min<br>
Bit rate : 64.0 kb/s<br>
Channel(s) : 2 channels<br>
Channel layout : L R<br>
Sampling rate : 48.0 kHz<br>
Frame rate : 23.438 FPS (2048 SPF)<br>
Compression mode : Lossy<br>
Stream size : 41.3 MiB (2%)<br>
Language : English<br>
Default : Yes<br>
Forced : No<br>
<br>
Text<br>
ID : 3<br>
Format : UTF-8<br>
Codec ID : S_TEXT/UTF8<br>
Codec ID/Info : UTF-8 Plain Text<br>
Duration : 1 h 28 min<br>
Bit rate : 56 b/s<br>
Frame rate : 0.228 FPS<br>
Count of elements : 1209<br>
Stream size : 36.7 KiB (0%)<br>
Title : SDH<br>
Language : English<br>
Default : No<br>
Forced : No<br>
<br>
Menu<br>
01:28:44.023 : en:Credits<br>
<br>
<b><span style="text-decoration: underline">Episode 3: Storm of the Century, Part 3</span></b><br>
General<br>
Complete name : Stephen.Kings.Storm.of.the.Century.S01E03.Storm.of.the.Century.Part.3.1080p.HULU.WEB-DL.AAC2.0.H.264-Samuel.mkv<br>
Format : Matroska<br>
Format version : Version 4<br>
File size : 2.68 GiB<br>
Duration : 1 h 30 min<br>
Overall bit rate : 4 249 kb/s<br>
Frame rate : 23.976 FPS<br>
Encoded date : 2023-09-09 04:52:51 UTC<br>
Writing application : mkvmerge v72.0.0 ('Minuano (Six-eight)') 64-bit<br>
Writing library : libebml v1.4.4 + libmatroska v1.7.1<br>
<br>
Video<br>
ID : 1<br>
Format : AVC<br>
Format/Info : Advanced Video Codec<br>
Format profile : High@L4<br>
Format settings : CABAC / 4 Ref Frames<br>
Format settings, CABAC : Yes<br>
Format settings, Reference frames : 4 frames<br>
Codec ID : V_MPEG4/ISO/AVC<br>
Duration : 1 h 30 min<br>
Bit rate : 4 183 kb/s<br>
Width : 1 920 pixels<br>
Height : 1 080 pixels<br>
Display aspect ratio : 16:9<br>
Frame rate mode : Constant<br>
Frame rate : 23.976 (24000/1001) FPS<br>
Color space : YUV<br>
Chroma subsampling : 4:2:0<br>
Bit depth : 8 bits<br>
Scan type : Progressive<br>
Bits/(Pixel*Frame) : 0.084<br>
Stream size : 2.64 GiB (98%)<br>
Default : Yes<br>
Forced : No<br>
<br>
Audio<br>
ID : 2<br>
Format : AAC LC SBR<br>
Format/Info : Advanced Audio Codec Low Complexity with Spectral Band Replication<br>
Commercial name : HE-AAC<br>
Format settings : Explicit<br>
Codec ID : A_AAC-2<br>
Duration : 1 h 30 min<br>
Bit rate : 64.0 kb/s<br>
Channel(s) : 2 channels<br>
Channel layout : L R<br>
Sampling rate : 48.0 kHz<br>
Frame rate : 23.438 FPS (2048 SPF)<br>
Compression mode : Lossy<br>
Stream size : 41.3 MiB (2%)<br>
Language : English<br>
Default : Yes<br>
Forced : No<br>
<br>
Text<br>
ID : 3<br>
Format : UTF-8<br>
Codec ID : S_TEXT/UTF8<br>
Codec ID/Info : UTF-8 Plain Text<br>
Duration : 1 h 29 min<br>
Bit rate : 57 b/s<br>
Frame rate : 0.233 FPS<br>
Count of elements : 1247<br>
Stream size : 37.3 KiB (0%)<br>
Title : SDH<br>
Language : English<br>
Default : No<br>
Forced : No<br>
<br>
Menu<br>
01:29:25.010 : en:Credits</div>
</div><br>
<b>Screenshots</b><br>
<img src="https://i.imgur.com/uAbkwx4.png" class="bbCodeImage LbImage" alt="[​IMG]" data-url="https://i.imgur.com/uAbkwx4.png" style=""><br>
<div class="bbCodeBlock bbCodeQuote">
<aside>
<blockquote class="quoteContainer"><div class="quote"><img src="https://i.imgur.com/p4X0Dae.png" class="bbCodeImage LbImage" alt="[​IMG]" data-url="https://i.imgur.com/p4X0Dae.png" style=""><img src="https://i.imgur.com/sPDly8d.png" class="bbCodeImage LbImage" alt="[​IMG]" data-url="https://i.imgur.com/sPDly8d.png" style=""></div><div class="quoteExpand quoteCut">Click to expand...</div></blockquote>
</aside>
</div><b>Download</b><br>
<div class="bbCodeBlock bbCodeVfcHH HiddenContent">
<div class="attribution type">Hidden Content:</div>
<blockquote>You must reply before you can see the hidden data contained here.</blockquote>
</div></div>
<div class="messageTextEndMarker">&nbsp;</div>
</blockquote>
</article>]]></description>
                <author><![CDATA[Samuel]]></author>
                </item>

                </channel></rss>